<svg width="112" height="51" viewBox="0 0 112 51" fill="none" xmlns="http://www.w3.org/2000/svg">
<path d="M76 22L93.5 1L111.5 22V50.5H1" stroke="white" stroke-linecap="round" stroke-linejoin="round"/>
<path d="M8.45784 26.68C7.49784 26.68 6.59184 26.494 5.73984 26.122C4.89984 25.738 4.15584 25.216 3.50784 24.556C2.85984 23.884 2.34984 23.116 1.97784 22.252C1.60584 21.376 1.41984 20.446 1.41984 19.462C1.41984 18.49 1.59984 17.572 1.95984 16.708C2.31984 15.832 2.81784 15.064 3.45384 14.404C4.10184 13.732 4.85184 13.21 5.70384 12.838C6.55584 12.454 7.47384 12.262 8.45784 12.262C9.28584 12.262 10.0718 12.394 10.8158 12.658C11.5598 12.922 12.2558 13.324 12.9038 13.864C13.0118 13.948 13.0658 14.068 13.0658 14.224C13.0658 14.368 13.0178 14.5 12.9218 14.62C12.8258 14.728 12.6938 14.782 12.5258 14.782C12.4778 14.782 12.4298 14.776 12.3818 14.764C12.3338 14.74 12.2858 14.716 12.2378 14.692C12.1898 14.656 12.1358 14.614 12.0758 14.566C11.5958 14.134 11.0498 13.822 10.4378 13.63C9.82584 13.438 9.16584 13.342 8.45784 13.342C7.65384 13.342 6.89184 13.51 6.17184 13.846C5.45184 14.17 4.81584 14.62 4.26384 15.196C3.71184 15.76 3.27984 16.408 2.96784 17.14C2.65584 17.872 2.49984 18.646 2.49984 19.462C2.49984 20.302 2.65584 21.094 2.96784 21.838C3.27984 22.582 3.70584 23.236 4.24584 23.8C4.79784 24.364 5.43384 24.808 6.15384 25.132C6.87384 25.444 7.64184 25.6 8.45784 25.6C9.16584 25.6 9.82584 25.492 10.4378 25.276C11.0618 25.06 11.6438 24.73 12.1838 24.286C12.2798 24.202 12.3938 24.172 12.5258 24.196C12.6578 24.22 12.7718 24.28 12.8678 24.376C12.9638 24.472 13.0118 24.598 13.0118 24.754C13.0118 24.826 13.0058 24.892 12.9938 24.952C12.9818 25.012 12.9458 25.072 12.8858 25.132C12.2978 25.72 11.6138 26.128 10.8338 26.356C10.0658 26.572 9.27384 26.68 8.45784 26.68ZM19.538 26.608C18.578 26.608 17.714 26.392 16.946 25.96C16.19 25.516 15.59 24.916 15.146 24.16C14.714 23.392 14.498 22.534 14.498 21.586C14.498 20.626 14.714 19.768 15.146 19.012C15.59 18.244 16.19 17.644 16.946 17.212C17.714 16.768 18.578 16.546 19.538 16.546C20.498 16.546 21.356 16.768 22.112 17.212C22.868 17.644 23.462 18.244 23.894 19.012C24.338 19.768 24.56 20.626 24.56 21.586C24.56 22.534 24.338 23.392 23.894 24.16C23.462 24.916 22.868 25.516 22.112 25.96C21.356 26.392 20.498 26.608 19.538 26.608ZM19.538 25.6C20.294 25.6 20.966 25.426 21.554 25.078C22.154 24.718 22.622 24.238 22.958 23.638C23.306 23.026 23.48 22.336 23.48 21.568C23.48 20.812 23.306 20.134 22.958 19.534C22.622 18.922 22.154 18.442 21.554 18.094C20.966 17.734 20.294 17.554 19.538 17.554C18.794 17.554 18.122 17.734 17.522 18.094C16.922 18.442 16.448 18.922 16.1 19.534C15.752 20.134 15.578 20.818 15.578 21.586C15.578 22.342 15.752 23.026 16.1 23.638C16.448 24.238 16.922 24.718 17.522 25.078C18.122 25.426 18.794 25.6 19.538 25.6ZM35.7688 26.5C35.6128 26.5 35.4808 26.452 35.3728 26.356C35.2768 26.248 35.2288 26.116 35.2288 25.96V21.118C35.2288 20.326 35.0728 19.672 34.7608 19.156C34.4608 18.64 34.0468 18.256 33.5188 18.004C33.0028 17.74 32.4148 17.608 31.7548 17.608C31.1068 17.608 30.5248 17.734 30.0088 17.986C29.4928 18.226 29.0848 18.562 28.7848 18.994C28.4848 19.426 28.3348 19.912 28.3348 20.452H27.4348C27.4828 19.708 27.7048 19.042 28.1008 18.454C28.4968 17.854 29.0128 17.386 29.6488 17.05C30.2848 16.702 30.9868 16.528 31.7548 16.528C32.6188 16.528 33.3928 16.708 34.0768 17.068C34.7728 17.416 35.3188 17.932 35.7148 18.616C36.1108 19.288 36.3088 20.122 36.3088 21.118V25.96C36.3088 26.116 36.2548 26.248 36.1468 26.356C36.0508 26.452 35.9248 26.5 35.7688 26.5ZM27.7948 26.5C27.6388 26.5 27.5068 26.452 27.3988 26.356C27.3028 26.248 27.2548 26.116 27.2548 25.96V17.194C27.2548 17.026 27.3028 16.894 27.3988 16.798C27.5068 16.702 27.6388 16.654 27.7948 16.654C27.9628 16.654 28.0948 16.702 28.1908 16.798C28.2868 16.894 28.3348 17.026 28.3348 17.194V25.96C28.3348 26.116 28.2868 26.248 28.1908 26.356C28.0948 26.452 27.9628 26.5 27.7948 26.5ZM42.7141 26.608C42.0901 26.608 41.4361 26.494 40.7521 26.266C40.0681 26.038 39.4981 25.654 39.0421 25.114C38.9461 24.994 38.9041 24.868 38.9161 24.736C38.9401 24.592 39.0181 24.472 39.1501 24.376C39.2701 24.292 39.3961 24.262 39.5281 24.286C39.6721 24.31 39.7861 24.376 39.8701 24.484C40.2181 24.892 40.6381 25.18 41.1301 25.348C41.6341 25.504 42.1801 25.582 42.7681 25.582C43.7761 25.582 44.4901 25.402 44.9101 25.042C45.3301 24.682 45.5401 24.262 45.5401 23.782C45.5401 23.314 45.3121 22.93 44.8561 22.63C44.4121 22.318 43.7221 22.096 42.7861 21.964C41.5861 21.796 40.6981 21.472 40.1221 20.992C39.5461 20.512 39.2581 19.954 39.2581 19.318C39.2581 18.718 39.4081 18.214 39.7081 17.806C40.0081 17.386 40.4161 17.074 40.9321 16.87C41.4601 16.654 42.0601 16.546 42.7321 16.546C43.5481 16.546 44.2381 16.696 44.8021 16.996C45.3661 17.284 45.8221 17.674 46.1701 18.166C46.2661 18.286 46.2961 18.418 46.2601 18.562C46.2361 18.694 46.1461 18.802 45.9901 18.886C45.8701 18.946 45.7441 18.964 45.6121 18.94C45.4801 18.916 45.3661 18.844 45.2701 18.724C44.9701 18.34 44.6041 18.052 44.1721 17.86C43.7521 17.656 43.2601 17.554 42.6961 17.554C41.9401 17.554 41.3521 17.716 40.9321 18.04C40.5121 18.364 40.3021 18.754 40.3021 19.21C40.3021 19.522 40.3861 19.798 40.5541 20.038C40.7341 20.266 41.0221 20.464 41.4181 20.632C41.8141 20.788 42.3421 20.914 43.0021 21.01C43.9021 21.13 44.6101 21.334 45.1261 21.622C45.6541 21.91 46.0261 22.246 46.2421 22.63C46.4701 23.002 46.5841 23.404 46.5841 23.836C46.5841 24.4 46.4041 24.892 46.0441 25.312C45.6841 25.732 45.2101 26.056 44.6221 26.284C44.0341 26.5 43.3981 26.608 42.7141 26.608ZM53.0485 26.5C52.3885 26.488 51.8005 26.338 51.2845 26.05C50.7685 25.75 50.3665 25.342 50.0785 24.826C49.7905 24.298 49.6465 23.704 49.6465 23.044V14.08C49.6465 13.912 49.6945 13.78 49.7905 13.684C49.8985 13.576 50.0305 13.522 50.1865 13.522C50.3545 13.522 50.4865 13.576 50.5825 13.684C50.6905 13.78 50.7445 13.912 50.7445 14.08V23.044C50.7445 23.74 50.9605 24.31 51.3925 24.754C51.8245 25.186 52.3825 25.402 53.0665 25.402H53.4625C53.6305 25.402 53.7625 25.456 53.8585 25.564C53.9665 25.66 54.0205 25.792 54.0205 25.96C54.0205 26.116 53.9665 26.248 53.8585 26.356C53.7625 26.452 53.6305 26.5 53.4625 26.5H53.0485ZM48.2425 17.986C48.0985 17.986 47.9785 17.944 47.8825 17.86C47.7985 17.764 47.7565 17.644 47.7565 17.5C47.7565 17.356 47.7985 17.242 47.8825 17.158C47.9785 17.062 48.0985 17.014 48.2425 17.014H53.1205C53.2645 17.014 53.3785 17.062 53.4625 17.158C53.5585 17.242 53.6065 17.356 53.6065 17.5C53.6065 17.644 53.5585 17.764 53.4625 17.86C53.3785 17.944 53.2645 17.986 53.1205 17.986H48.2425ZM56.6363 20.488C56.7083 19.72 56.9183 19.042 57.2663 18.454C57.6143 17.854 58.0643 17.386 58.6163 17.05C59.1683 16.714 59.7803 16.546 60.4523 16.546C60.9083 16.546 61.2623 16.6 61.5143 16.708C61.7663 16.816 61.8623 17.008 61.8023 17.284C61.7663 17.464 61.6823 17.572 61.5503 17.608C61.4183 17.644 61.2563 17.65 61.0643 17.626C60.8843 17.59 60.6803 17.572 60.4523 17.572C59.8523 17.572 59.3183 17.698 58.8503 17.95C58.3823 18.202 58.0163 18.55 57.7523 18.994C57.4883 19.426 57.3563 19.924 57.3563 20.488H56.6363ZM56.8163 26.5C56.6603 26.5 56.5283 26.452 56.4203 26.356C56.3243 26.248 56.2763 26.116 56.2763 25.96V17.194C56.2763 17.026 56.3243 16.894 56.4203 16.798C56.5283 16.702 56.6603 16.654 56.8163 16.654C56.9843 16.654 57.1163 16.702 57.2123 16.798C57.3083 16.894 57.3563 17.026 57.3563 17.194V25.96C57.3563 26.116 57.3083 26.248 57.2123 26.356C57.1163 26.452 56.9843 26.5 56.8163 26.5ZM68.5428 26.626C67.6788 26.626 66.9048 26.452 66.2208 26.104C65.5368 25.744 64.9908 25.222 64.5828 24.538C64.1868 23.854 63.9888 23.02 63.9888 22.036V17.194C63.9888 17.038 64.0368 16.912 64.1328 16.816C64.2408 16.708 64.3728 16.654 64.5288 16.654C64.6848 16.654 64.8108 16.708 64.9068 16.816C65.0148 16.912 65.0688 17.038 65.0688 17.194V22.036C65.0688 22.816 65.2188 23.47 65.5188 23.998C65.8308 24.514 66.2448 24.904 66.7608 25.168C67.2888 25.42 67.8828 25.546 68.5428 25.546C69.1908 25.546 69.7728 25.42 70.2888 25.168C70.8048 24.916 71.2128 24.58 71.5128 24.16C71.8128 23.728 71.9628 23.242 71.9628 22.702H72.8628C72.8148 23.446 72.5928 24.118 72.1968 24.718C71.8008 25.306 71.2848 25.774 70.6488 26.122C70.0248 26.458 69.3228 26.626 68.5428 26.626ZM72.5028 26.5C72.3468 26.5 72.2148 26.452 72.1068 26.356C72.0108 26.248 71.9628 26.116 71.9628 25.96V17.194C71.9628 17.026 72.0108 16.894 72.1068 16.798C72.2148 16.702 72.3468 16.654 72.5028 16.654C72.6708 16.654 72.8028 16.702 72.8988 16.798C72.9948 16.894 73.0428 17.026 73.0428 17.194V25.96C73.0428 26.116 72.9948 26.248 72.8988 26.356C72.8028 26.452 72.6708 26.5 72.5028 26.5Z" fill="white"/>
<path d="M8.12965 46.68C7.15765 46.68 6.24565 46.5 5.39365 46.14C4.55365 45.768 3.81565 45.258 3.17965 44.61C2.55565 43.95 2.06365 43.182 1.70365 42.306C1.35565 41.43 1.18165 40.482 1.18165 39.462C1.18165 38.454 1.35565 37.518 1.70365 36.654C2.06365 35.778 2.55565 35.016 3.17965 34.368C3.81565 33.708 4.55365 33.192 5.39365 32.82C6.23365 32.448 7.14565 32.262 8.12965 32.262C9.05365 32.262 9.84565 32.382 10.5056 32.622C11.1776 32.862 11.8496 33.258 12.5216 33.81C12.6176 33.882 12.6896 33.96 12.7376 34.044C12.7976 34.116 12.8336 34.194 12.8456 34.278C12.8696 34.35 12.8816 34.44 12.8816 34.548C12.8816 34.776 12.7976 34.968 12.6296 35.124C12.4736 35.268 12.2816 35.352 12.0536 35.376C11.8256 35.388 11.6036 35.31 11.3876 35.142C10.9436 34.758 10.4816 34.464 10.0016 34.26C9.53365 34.056 8.90965 33.954 8.12965 33.954C7.42165 33.954 6.75565 34.098 6.13165 34.386C5.50765 34.674 4.95565 35.07 4.47565 35.574C4.00765 36.078 3.64165 36.666 3.37765 37.338C3.11365 37.998 2.98165 38.706 2.98165 39.462C2.98165 40.23 3.11365 40.95 3.37765 41.622C3.64165 42.282 4.00765 42.864 4.47565 43.368C4.95565 43.872 5.50765 44.268 6.13165 44.556C6.75565 44.832 7.42165 44.97 8.12965 44.97C8.74165 44.97 9.31765 44.868 9.85765 44.664C10.4096 44.448 10.9376 44.154 11.4416 43.782C11.6576 43.626 11.8676 43.56 12.0716 43.584C12.2876 43.596 12.4676 43.68 12.6116 43.836C12.7556 43.98 12.8276 44.184 12.8276 44.448C12.8276 44.568 12.8036 44.688 12.7556 44.808C12.7076 44.916 12.6356 45.018 12.5396 45.114C11.8916 45.63 11.1956 46.02 10.4516 46.284C9.71965 46.548 8.94565 46.68 8.12965 46.68ZM23.9398 46.68C22.8838 46.68 21.9178 46.506 21.0418 46.158C20.1658 45.798 19.4098 45.3 18.7738 44.664C18.1498 44.016 17.6638 43.254 17.3158 42.378C16.9678 41.49 16.7938 40.518 16.7938 39.462C16.7938 38.406 16.9678 37.44 17.3158 36.564C17.6638 35.688 18.1498 34.932 18.7738 34.296C19.4098 33.648 20.1658 33.15 21.0418 32.802C21.9178 32.442 22.8838 32.262 23.9398 32.262C24.9958 32.262 25.9558 32.442 26.8198 32.802C27.6958 33.15 28.4518 33.648 29.0878 34.296C29.7238 34.932 30.2158 35.688 30.5638 36.564C30.9118 37.44 31.0858 38.406 31.0858 39.462C31.0858 40.518 30.9118 41.49 30.5638 42.378C30.2158 43.254 29.7238 44.016 29.0878 44.664C28.4518 45.3 27.6958 45.798 26.8198 46.158C25.9558 46.506 24.9958 46.68 23.9398 46.68ZM23.9398 44.988C24.7198 44.988 25.4338 44.85 26.0818 44.574C26.7418 44.286 27.3118 43.896 27.7918 43.404C28.2718 42.9 28.6378 42.312 28.8898 41.64C29.1538 40.968 29.2858 40.242 29.2858 39.462C29.2858 38.682 29.1538 37.956 28.8898 37.284C28.6378 36.612 28.2718 36.03 27.7918 35.538C27.3118 35.034 26.7418 34.644 26.0818 34.368C25.4338 34.092 24.7198 33.954 23.9398 33.954C23.1598 33.954 22.4398 34.092 21.7798 34.368C21.1318 34.644 20.5678 35.034 20.0878 35.538C19.6198 36.03 19.2538 36.612 18.9898 37.284C18.7258 37.956 18.5938 38.682 18.5938 39.462C18.5938 40.242 18.7258 40.968 18.9898 41.64C19.2538 42.312 19.6198 42.9 20.0878 43.404C20.5678 43.896 21.1318 44.286 21.7798 44.574C22.4398 44.85 23.1598 44.988 23.9398 44.988ZM36.556 46.5C36.292 46.5 36.07 46.41 35.89 46.23C35.722 46.05 35.638 45.828 35.638 45.564V33.378C35.638 33.102 35.722 32.88 35.89 32.712C36.07 32.532 36.292 32.442 36.556 32.442C36.844 32.442 37.084 32.556 37.276 32.784L45.124 43.224V33.378C45.124 33.102 45.214 32.88 45.394 32.712C45.574 32.532 45.796 32.442 46.06 32.442C46.336 32.442 46.558 32.532 46.726 32.712C46.894 32.88 46.978 33.102 46.978 33.378V45.564C46.978 45.828 46.894 46.05 46.726 46.23C46.558 46.41 46.336 46.5 46.06 46.5C45.94 46.5 45.808 46.476 45.664 46.428C45.532 46.368 45.424 46.284 45.34 46.176L37.492 35.736V45.564C37.492 45.828 37.402 46.05 37.222 46.23C37.054 46.41 36.832 46.5 36.556 46.5ZM53.1354 46.5C52.8714 46.5 52.6494 46.41 52.4694 46.23C52.2894 46.05 52.1994 45.828 52.1994 45.564V33.378C52.1994 33.102 52.2894 32.88 52.4694 32.712C52.6494 32.532 52.8714 32.442 53.1354 32.442H61.2714C61.5474 32.442 61.7694 32.526 61.9374 32.694C62.1054 32.85 62.1894 33.06 62.1894 33.324C62.1894 33.576 62.1054 33.78 61.9374 33.936C61.7694 34.092 61.5474 34.17 61.2714 34.17H54.0714V38.544H59.2374C59.5134 38.544 59.7354 38.628 59.9034 38.796C60.0714 38.952 60.1554 39.156 60.1554 39.408C60.1554 39.66 60.0714 39.87 59.9034 40.038C59.7354 40.194 59.5134 40.272 59.2374 40.272H54.0714V44.772H61.2714C61.5474 44.772 61.7694 44.85 61.9374 45.006C62.1054 45.162 62.1894 45.366 62.1894 45.618C62.1894 45.882 62.1054 46.098 61.9374 46.266C61.7694 46.422 61.5474 46.5 61.2714 46.5H53.1354ZM72.7229 46.68C71.7509 46.68 70.8389 46.5 69.9869 46.14C69.1469 45.768 68.4089 45.258 67.7729 44.61C67.1489 43.95 66.6569 43.182 66.2969 42.306C65.9489 41.43 65.7749 40.482 65.7749 39.462C65.7749 38.454 65.9489 37.518 66.2969 36.654C66.6569 35.778 67.1489 35.016 67.7729 34.368C68.4089 33.708 69.1469 33.192 69.9869 32.82C70.8269 32.448 71.7389 32.262 72.7229 32.262C73.6469 32.262 74.4389 32.382 75.0989 32.622C75.7709 32.862 76.4429 33.258 77.1149 33.81C77.2109 33.882 77.2829 33.96 77.3309 34.044C77.3909 34.116 77.4269 34.194 77.4389 34.278C77.4629 34.35 77.4749 34.44 77.4749 34.548C77.4749 34.776 77.3909 34.968 77.2229 35.124C77.0669 35.268 76.8749 35.352 76.6469 35.376C76.4189 35.388 76.1969 35.31 75.9809 35.142C75.5369 34.758 75.0749 34.464 74.5949 34.26C74.1269 34.056 73.5029 33.954 72.7229 33.954C72.0149 33.954 71.3489 34.098 70.7249 34.386C70.1009 34.674 69.5489 35.07 69.0689 35.574C68.6009 36.078 68.2349 36.666 67.9709 37.338C67.7069 37.998 67.5749 38.706 67.5749 39.462C67.5749 40.23 67.7069 40.95 67.9709 41.622C68.2349 42.282 68.6009 42.864 69.0689 43.368C69.5489 43.872 70.1009 44.268 70.7249 44.556C71.3489 44.832 72.0149 44.97 72.7229 44.97C73.3349 44.97 73.9109 44.868 74.4509 44.664C75.0029 44.448 75.5309 44.154 76.0349 43.782C76.2509 43.626 76.4609 43.56 76.6649 43.584C76.8809 43.596 77.0609 43.68 77.2049 43.836C77.3489 43.98 77.4209 44.184 77.4209 44.448C77.4209 44.568 77.3969 44.688 77.3489 44.808C77.3009 44.916 77.2289 45.018 77.1329 45.114C76.4849 45.63 75.7889 46.02 75.0449 46.284C74.3129 46.548 73.5389 46.68 72.7229 46.68ZM86.1931 46.5C85.9291 46.5 85.7071 46.41 85.5271 46.23C85.3471 46.05 85.2571 45.828 85.2571 45.564V32.442H87.1291V45.564C87.1291 45.828 87.0391 46.05 86.8591 46.23C86.6791 46.41 86.4571 46.5 86.1931 46.5ZM81.3691 34.17C81.1171 34.17 80.9071 34.092 80.7391 33.936C80.5831 33.768 80.5051 33.558 80.5051 33.306C80.5051 33.054 80.5831 32.85 80.7391 32.694C80.9071 32.526 81.1171 32.442 81.3691 32.442H90.9991C91.2511 32.442 91.4551 32.526 91.6111 32.694C91.7791 32.85 91.8631 33.054 91.8631 33.306C91.8631 33.558 91.7791 33.768 91.6111 33.936C91.4551 34.092 91.2511 34.17 90.9991 34.17H81.3691ZM93.5561 46.5C93.2201 46.5 92.9621 46.356 92.7821 46.068C92.6021 45.78 92.5841 45.474 92.7281 45.15L97.7861 33.072C97.9661 32.652 98.2601 32.442 98.6681 32.442C99.1001 32.442 99.3941 32.652 99.5501 33.072L104.626 45.186C104.758 45.522 104.734 45.828 104.554 46.104C104.386 46.368 104.128 46.5 103.78 46.5C103.6 46.5 103.426 46.452 103.258 46.356C103.102 46.248 102.988 46.104 102.916 45.924L98.4521 34.836H98.9561L94.4201 45.924C94.3361 46.116 94.2101 46.26 94.0421 46.356C93.8861 46.452 93.7241 46.5 93.5561 46.5ZM94.5101 43.404L95.2301 41.856H102.286L103.006 43.404H94.5101Z" fill="white"/>
</svg>
